<svg width="76" height="76" viewBox="0 0 76 76" fill="none" xmlns="http://www.w3.org/2000/svg">
<path d="M0 3.74C0.1 3.49 0.190001 3.24 0.290001 2.99C1.05 1.2 2.38 0.18 4.34 0.03C4.61 0.01 4.88 0.01 5.15 0.01C27.01 0.01 48.86 0.02 70.71 0C72.36 0 73.77 0.43 74.83 1.74C75.49 2.55 75.84 3.48 75.84 4.54C75.84 22.49 75.84 40.44 75.84 58.39C75.84 60.9 73.87 62.88 71.26 62.97C67.11 63.11 62.97 63.19 58.82 63.3C57.41 63.34 56.01 63.36 54.6 63.46C54.35 63.48 54.02 63.77 53.89 64.03C52.11 67.52 50.37 71.03 48.61 74.53C48.49 74.77 48.41 75.1 48.21 75.22C47.84 75.45 47.34 75.74 46.98 75.65C46.63 75.57 46.18 75.08 46.12 74.71C45.66 72.09 45.29 69.45 44.9 66.82C44.71 65.56 44.51 64.3 44.31 62.98C43.94 62.98 43.62 62.98 43.3 62.98C30.86 62.98 18.41 62.94 5.97 63.01C3.08 63.03 0.98 62.17 0 59.3C0 40.78 0 22.26 0 3.74ZM2.37 18.88V19.67C2.37 32.34 2.37 45 2.37 57.67C2.37 59.62 3.21 60.46 5.17 60.46C17.84 60.46 30.5 60.46 43.17 60.46H44C44 60.2 44.02 60.03 44 59.87C43.54 56.77 43.08 53.68 42.61 50.59C42.39 49.15 42.17 47.72 41.96 46.28C41.88 45.74 41.93 45.24 42.45 44.91C42.96 44.59 43.44 44.7 43.89 45.03C44.01 45.12 44.14 45.19 44.26 45.27C51.07 49.77 57.93 54.2 64.67 58.8C66.58 60.11 68.46 60.78 70.76 60.59C72.66 60.43 73.48 59.73 73.48 57.79C73.48 45.1 73.48 32.41 73.48 19.72C73.48 19.46 73.48 19.19 73.48 18.9H2.36L2.37 18.88ZM2.37 16.43H73.49C73.49 16.11 73.49 15.84 73.49 15.58C73.49 12.15 73.44 8.72 73.51 5.29C73.55 3.61 72.72 2.37 70.59 2.37C48.82 2.41 27.04 2.4 5.27 2.4C5.12 2.4 4.97 2.4 4.83 2.4C3.31 2.41 2.38 3.32 2.38 4.84C2.37 7.51 2.38 10.17 2.38 12.84C2.38 14.02 2.38 15.2 2.38 16.44L2.37 16.43ZM62.96 60.66L63 60.5C56.9 56.48 50.8 52.47 44.58 48.38C45.69 55.77 46.77 63.01 47.88 70.42C48.08 70.06 48.2 69.85 48.31 69.64C49.56 67.18 50.82 64.73 52.04 62.25C52.44 61.43 52.95 61 53.91 60.99C56.15 60.96 58.4 60.85 60.64 60.77C61.42 60.74 62.19 60.69 62.96 60.66Z" fill="white"/>
<path d="M22.4302 31.62C23.9502 33.22 23.9202 35.09 23.5202 36.96C23.1402 38.73 21.5302 39.97 19.7202 40.04C18.4602 40.09 17.2002 40.07 15.9502 40.06C15.0902 40.05 14.6802 39.64 14.6802 38.78C14.6802 34.04 14.6802 29.31 14.6802 24.57C14.6802 23.7 15.0602 23.25 15.9202 23.24C17.2702 23.22 18.6402 23.19 19.9902 23.3C22.1102 23.49 23.6502 25.28 23.7202 27.4C23.7702 28.94 23.6802 30.42 22.4402 31.63L22.4302 31.62ZM17.1002 30.43C17.9202 30.43 18.6602 30.44 19.4002 30.43C20.4702 30.41 21.1602 29.79 21.3202 28.76C21.5502 27.19 21.1202 26.12 20.0902 25.75C20.0702 25.75 20.0402 25.72 20.0202 25.72C19.0502 25.72 18.0802 25.72 17.1102 25.72V30.44L17.1002 30.43ZM17.1202 32.91V37.66C17.9802 37.66 18.8002 37.7 19.6102 37.66C20.5902 37.6 21.2602 36.84 21.3402 35.78C21.4502 34.14 20.9902 33.18 19.9702 32.93C19.9502 32.93 19.9202 32.92 19.9002 32.92C18.9902 32.92 18.0902 32.92 17.1302 32.92L17.1202 32.91Z" fill="white"/>
<path d="M52.9899 31.74C52.3699 31.99 52.2599 32.4 52.2699 32.95C52.2999 34.68 52.2899 36.4 52.2799 38.13C52.2799 39.1 51.8799 39.58 51.0999 39.58C50.3299 39.58 49.8999 39.09 49.8999 38.13C49.8999 33.61 49.8999 29.1 49.8999 24.58C49.8999 23.67 50.3199 23.21 51.0899 23.22C51.8499 23.22 52.2799 23.71 52.2799 24.6C52.2799 26 52.2799 27.41 52.2799 28.97C52.5899 28.73 52.8199 28.56 53.0299 28.39C54.9699 26.79 56.9099 25.19 58.8599 23.59C59.5799 23 60.2099 23.03 60.7299 23.65C61.1899 24.2 61.0599 24.84 60.3499 25.44C58.5599 26.95 56.7599 28.44 54.8999 29.99C55.0799 30.28 55.2499 30.54 55.4199 30.8C56.8899 32.99 58.3699 35.17 59.8299 37.37C60.4199 38.26 60.1799 39.12 59.2799 39.4C58.6199 39.61 58.1499 39.35 57.7799 38.79C56.3299 36.62 54.8499 34.46 53.3899 32.3C53.2699 32.12 53.1299 31.94 52.9999 31.75L52.9899 31.74Z" fill="white"/>
<path d="M38.0402 31.46C38.0402 30.3 38.1002 29.14 38.0302 27.98C37.8302 24.89 40.0302 22.86 43.5302 23.38C45.6702 23.7 47.0502 25.28 47.0702 27.45C47.1002 30.14 47.1002 32.83 47.0702 35.51C47.0402 37.91 45.3102 39.58 42.9202 39.58C42.2602 39.58 41.5802 39.58 40.9402 39.42C39.2702 39 38.1402 37.54 38.0502 35.82C38.0502 35.72 38.0402 35.62 38.0402 35.52C38.0402 34.16 38.0402 32.81 38.0402 31.45V31.46ZM44.6502 31.44C44.6502 30.16 44.6602 28.88 44.6502 27.6C44.6302 26.31 44.0902 25.79 42.7902 25.76C42.6202 25.76 42.4402 25.76 42.2702 25.76C40.9902 25.8 40.4402 26.36 40.4302 27.64C40.4302 30.2 40.4302 32.76 40.4302 35.33C40.4302 36.63 41.0502 37.23 42.4102 37.24C44.0102 37.25 44.6202 36.75 44.6502 35.37C44.6702 34.06 44.6502 32.76 44.6502 31.45V31.44Z" fill="white"/>
<path d="M35.5501 31.5C35.5501 32.88 35.5601 34.26 35.5501 35.64C35.5301 37.84 33.8001 39.57 31.5901 39.58C30.9101 39.58 30.2001 39.59 29.5401 39.44C27.7701 39.02 26.5601 37.5 26.5401 35.7C26.5101 32.89 26.5101 30.08 26.5401 27.27C26.5601 25.35 27.9201 23.74 29.8201 23.46C30.6601 23.33 31.5501 23.34 32.3801 23.47C34.1901 23.76 35.5101 25.39 35.5501 27.22C35.5501 27.27 35.5501 27.32 35.5501 27.37C35.5501 28.75 35.5501 30.13 35.5501 31.51V31.5ZM28.9201 31.44C28.9201 32.72 28.8601 34.01 28.9501 35.28C28.9801 35.8 29.1801 36.46 29.5401 36.78C30.3301 37.48 31.3501 37.37 32.2701 37.01C33.0701 36.7 33.2001 35.95 33.2001 35.16C33.2001 32.77 33.2001 30.38 33.2001 27.99C33.2001 26.21 32.6901 25.71 30.8901 25.74C29.4901 25.76 28.9401 26.32 28.9301 27.74C28.9301 28.97 28.9301 30.2 28.9301 31.44H28.9201Z" fill="white"/>
<path d="M20.3701 55.27C16.7201 55.27 13.0701 55.27 9.42008 55.27C8.37008 55.27 7.84008 54.75 7.96008 53.88C8.03008 53.36 8.30008 53 8.83008 52.92C9.14008 52.87 9.47008 52.85 9.79008 52.85C16.9001 52.85 24.0001 52.85 31.1101 52.85C31.4001 52.85 31.7001 52.85 31.9901 52.9C32.6301 52.99 32.9301 53.41 32.9501 54.02C32.9701 54.63 32.6901 55.07 32.0701 55.21C31.8101 55.27 31.5301 55.27 31.2601 55.27C27.6301 55.27 24.0101 55.27 20.3801 55.27H20.3701Z" fill="white"/>
<path d="M18.7402 48.27C15.6602 48.27 12.5702 48.27 9.4902 48.27C8.4802 48.27 8.0502 47.97 7.9602 47.24C7.8702 46.54 8.2202 46.02 8.9102 45.88C9.0802 45.84 9.2502 45.84 9.4202 45.84C15.6402 45.84 21.8602 45.84 28.0802 45.84C29.0702 45.84 29.5402 46.28 29.5102 47.13C29.4802 47.73 29.1902 48.11 28.6002 48.21C28.3102 48.26 28.0102 48.27 27.7202 48.27C24.7302 48.27 21.7502 48.27 18.7602 48.27H18.7402Z" fill="white"/>
<path d="M18.7299 10.56C15.5699 10.56 12.4199 10.56 9.25988 10.56C8.25988 10.56 7.71988 9.87 7.99988 8.97C8.17988 8.39 8.61988 8.19 9.19988 8.19C11.1699 8.19 13.1499 8.19 15.1199 8.19C19.4599 8.19 23.7999 8.19 28.1399 8.19C29.0199 8.19 29.4999 8.62 29.4999 9.39C29.4999 10.15 29.0599 10.55 28.1999 10.55C25.0399 10.55 21.8899 10.55 18.7299 10.55V10.56Z" fill="white"/>
<path d="M66.36 9.40999C66.35 11.53 64.55 13.32 62.43 13.3C60.31 13.28 58.52 11.48 58.52 9.36999C58.52 7.25999 60.31 5.45999 62.43 5.44999C64.58 5.43999 66.37 7.23999 66.35 9.41999L66.36 9.40999ZM62.48 10.87C63.28 10.86 63.99 10.14 63.98 9.34999C63.98 8.52999 63.22 7.82999 62.38 7.85999C61.57 7.88999 60.89 8.60999 60.92 9.40999C60.95 10.22 61.66 10.88 62.48 10.86V10.87Z" fill="white"/>
<path d="M53.8 9.41001C53.78 11.55 52 13.32 49.88 13.3C47.76 13.28 45.96 11.48 45.96 9.37001C45.96 7.23001 47.83 5.40001 49.95 5.45001C52.11 5.50001 53.81 7.25001 53.8 9.41001ZM49.9 10.88C50.73 10.88 51.41 10.21 51.42 9.40001C51.43 8.55001 50.73 7.86001 49.87 7.88001C49.03 7.89001 48.4 8.56001 48.41 9.40001C48.41 10.24 49.07 10.89 49.91 10.88H49.9Z" fill="white"/>
<path d="M34.7398 10.55C34.2198 10.55 33.6998 10.57 33.1898 10.55C32.5198 10.51 32.1298 10.05 32.1398 9.36999C32.1398 8.68999 32.5298 8.21999 33.2098 8.19999C34.2198 8.16999 35.2298 8.16999 36.2498 8.19999C36.9298 8.21999 37.3298 8.66999 37.3498 9.33999C37.3598 10.05 36.9498 10.51 36.2398 10.55C35.7498 10.57 35.2498 10.55 34.7598 10.55H34.7398Z" fill="white"/>
</svg>
