<svg width="76" height="76" viewBox="0 0 76 76" fill="none" xmlns="http://www.w3.org/2000/svg">
<path d="M9.09446 67.7601C9.00446 68.2901 8.96446 68.7601 8.84446 69.2101C8.24446 71.3601 6.12445 72.8101 4.04445 72.5201C1.67445 72.1901 0.0144444 70.3601 0.00444444 68.0301C-0.00555556 61.2901 0.00444444 54.5501 0.00444444 47.8201C0.00444444 45.2601 1.77445 43.2801 4.18445 43.1101C6.64445 42.9401 8.64445 44.6601 9.01445 47.2501C9.01445 47.3101 9.05445 47.3601 9.01445 47.2801C10.8345 47.0101 12.6245 46.6201 14.4245 46.5101C17.5345 46.3201 20.3644 47.4701 23.1644 48.6301C25.6644 49.6701 28.1544 50.7101 30.8844 50.9401C31.2644 50.9701 31.6444 51.0001 32.0244 51.0001C36.5844 51.0001 41.1445 51.0901 45.7045 50.9701C48.6645 50.8901 51.2045 51.4501 52.7845 54.3101C54.9345 52.7601 57.0045 51.2701 59.0745 49.7801C61.0545 48.3501 63.0344 46.9301 65.0044 45.4901C66.6344 44.3001 68.4645 43.8701 70.4245 44.2301C74.3245 44.9401 76.2745 48.7401 74.7045 52.5501C74.3945 53.3001 73.9645 54.0401 73.4145 54.6301C67.7745 60.6901 61.5845 66.0801 54.2845 70.0901C49.7245 72.6001 44.8945 74.4001 39.7145 75.0901C35.6845 75.6301 31.8444 74.7801 28.1144 73.1901C24.2344 71.5401 20.3345 69.8801 16.3445 68.5201C14.4445 67.8701 12.3044 67.9001 10.2744 67.6501C9.88445 67.6001 9.46445 67.7201 9.07445 67.7601H9.09446ZM9.00444 64.8101C12.2544 64.6301 15.3344 64.8601 18.2444 65.9801C22.1245 67.4801 25.9644 69.1101 29.8044 70.7201C33.1644 72.1301 36.6445 72.6801 40.2345 72.0701C44.3145 71.3801 48.1845 70.0001 51.8445 68.0901C59.2945 64.2001 65.5445 58.7901 71.2345 52.6901C71.6245 52.2701 71.9144 51.7201 72.0944 51.1801C72.7244 49.3001 71.8845 47.5601 70.1945 47.1801C68.9644 46.9001 67.8045 47.0801 66.7544 47.8401C62.4644 50.9401 58.1644 54.0301 53.8844 57.1401C53.6444 57.3101 53.4044 57.6001 53.3344 57.8801C52.4644 61.4501 50.4344 63.0701 46.7444 63.0701C41.8545 63.0701 36.9744 63.0701 32.0844 63.0701C31.7344 63.0701 31.3744 63.0901 31.0244 63.0501C30.2344 62.9601 29.8244 62.4701 29.7444 61.7101C29.6744 60.9701 30.1944 60.3301 30.9444 60.2201C31.2944 60.1701 31.6444 60.1701 32.0044 60.1701C36.9744 60.1701 41.9545 60.1701 46.9245 60.1701C48.0345 60.1701 49.0344 59.9301 49.7544 59.0201C50.5544 58.0201 50.7245 56.9001 50.1745 55.7201C49.5745 54.4301 48.4845 53.9001 47.1045 53.9001C42.1045 53.9001 37.0945 53.9501 32.0945 53.8701C30.4345 53.8401 28.7245 53.6601 27.1445 53.1801C24.5945 52.4201 22.1244 51.3801 19.6344 50.4101C16.3444 49.1401 13.0545 49.1001 9.73446 50.3201C9.15446 50.5301 8.94446 50.8401 8.95446 51.4801C8.99446 54.7201 8.97445 57.9501 8.97445 61.1901C8.97445 62.3601 8.97445 63.5301 8.97445 64.8001L9.00444 64.8101ZM2.91445 57.7701C2.91445 61.1001 2.91445 64.4201 2.91445 67.7501C2.91445 68.9301 3.49445 69.5801 4.46445 69.6001C5.46445 69.6201 6.08446 68.9301 6.09446 67.7201C6.09446 67.0701 6.02445 66.4301 6.02445 65.7801C6.02445 60.8401 6.02445 55.8901 6.02445 50.9501C6.02445 49.8301 6.12445 48.7201 6.07445 47.6101C6.03445 46.6001 5.34445 46.0301 4.40445 46.0701C3.45445 46.1101 2.92445 46.7301 2.91445 47.8801C2.89445 51.1801 2.91445 54.4701 2.91445 57.7701Z" fill="white"/>
<path d="M37.6344 40.7401C32.9244 40.7401 28.2244 40.7401 23.5144 40.7401C21.6244 40.7401 21.2144 40.3301 21.2144 38.4801C21.2144 36.0401 21.2144 33.6001 21.2144 31.1501C21.2344 24.3001 26.4444 19.1001 33.2844 19.0901C36.2244 19.0901 39.1643 19.0901 42.1143 19.0901C48.7943 19.1101 54.0044 24.3401 54.0244 31.0301C54.0244 33.5901 54.0244 36.1501 54.0244 38.7101C54.0244 40.2301 53.5444 40.7301 52.0244 40.7301C47.2244 40.7301 42.4344 40.7301 37.6344 40.7301V40.7401ZM51.0544 37.7601C51.0544 35.3201 51.1044 32.9401 51.0444 30.5601C50.9244 25.8801 47.0944 22.1101 42.4044 22.0701C39.2244 22.0401 36.0544 22.0401 32.8744 22.0701C28.9344 22.1001 25.3044 24.6801 24.5744 28.5401C24.0144 31.5301 24.1743 34.6501 24.0043 37.7601H26.7344C26.7544 37.4301 26.7744 37.1401 26.7744 36.8601C26.7744 35.6001 26.7644 34.3301 26.7844 33.0701C26.8044 32.0501 27.3944 31.4401 28.2644 31.4601C29.0944 31.4801 29.6344 32.0901 29.6644 33.0501C29.6744 33.5501 29.6644 34.0501 29.6644 34.5501C29.6644 35.6201 29.6644 36.7001 29.6644 37.7601H45.5144C45.5244 37.5401 45.5444 37.3701 45.5444 37.2001C45.5444 35.7601 45.5244 34.3201 45.5544 32.8801C45.5744 32.1001 46.1444 31.5401 46.8744 31.4701C47.6044 31.4101 48.2444 31.8801 48.4044 32.6401C48.4744 32.9801 48.4743 33.3401 48.4743 33.6901C48.4743 35.0301 48.4743 36.3801 48.4743 37.7701H51.0344L51.0544 37.7601Z" fill="white"/>
<path d="M37.6045 16.4501C33.0745 16.4701 29.3445 12.7401 29.3545 8.21008C29.3645 3.71008 33.0545 0.0200818 37.5445 8.18006e-05C42.1245 -0.0199182 45.8545 3.63008 45.8745 8.15008C45.9045 12.7301 42.2045 16.4301 37.6045 16.4501ZM42.9245 8.27008C42.9245 5.29008 40.6145 2.95008 37.6345 2.93008C34.6845 2.91008 32.3045 5.29008 32.3045 8.23008C32.3045 11.1501 34.7545 13.5901 37.6445 13.5501C40.5545 13.5201 42.9145 11.1501 42.9245 8.26008V8.27008Z" fill="white"/>
</svg>
