<svg width="88" height="87" viewBox="0 0 88 87" fill="none" xmlns="http://www.w3.org/2000/svg">
<path d="M75.1713 45.068C75.3113 39.838 75.2813 34.768 73.4713 29.938C69.1113 18.298 60.8613 11.058 48.5713 9.01797C32.3013 6.32797 17.1513 16.418 12.9613 32.318C11.8713 36.468 11.9113 40.678 12.0013 45.038C12.4013 44.578 12.7013 44.188 13.0413 43.858C14.6813 42.308 16.6113 41.818 18.7413 42.578C20.8913 43.348 22.1413 44.928 22.4213 47.208C22.4713 47.588 22.4913 47.968 22.4913 48.348C22.4913 55.378 22.4913 62.418 22.4913 69.448C22.4913 71.528 21.8313 73.258 20.1113 74.498C17.2713 76.538 13.2813 75.468 11.8713 72.258C11.6113 71.658 11.2913 71.428 10.6813 71.328C4.47133 70.338 -0.0886908 64.998 0.00130918 58.768C0.0413092 55.758 1.08132 53.088 2.98132 50.738C3.24132 50.408 3.43133 49.918 3.43133 49.488C3.48133 45.988 3.41131 42.478 3.50131 38.978C3.71131 30.198 6.59133 22.338 11.9913 15.438C17.5613 8.32797 24.7213 3.48797 33.4913 1.33797C46.8213 -1.92203 58.9413 0.757968 69.5113 9.56797C77.1713 15.958 81.7013 24.238 83.2513 34.088C83.5913 36.228 83.6313 38.418 83.6813 40.598C83.7513 43.538 83.6813 46.488 83.7213 49.428C83.7213 49.878 83.9113 50.408 84.1913 50.758C89.6213 57.488 87.3113 67.048 79.3813 70.488C78.8513 70.718 78.6913 70.998 78.7213 71.538C78.8513 73.838 78.5513 76.068 77.2813 78.058C75.3513 81.078 72.5813 82.718 68.9913 82.768C63.9613 82.838 58.9213 82.788 53.8913 82.788C53.5713 82.788 53.2513 82.788 52.8613 82.788C52.8113 83.198 52.7913 83.578 52.7113 83.928C52.3713 85.368 51.0713 86.438 49.4813 86.458C46.2413 86.498 43.0013 86.498 39.7713 86.458C37.9513 86.438 36.6113 85.208 36.4813 83.418C36.3813 82.048 36.3913 80.648 36.5213 79.278C36.6713 77.658 38.0113 76.488 39.6413 76.468C42.9713 76.428 46.2913 76.428 49.6213 76.468C51.3513 76.488 52.6413 77.798 52.7913 79.538C52.8013 79.708 52.8313 79.878 52.8513 80.088C53.0813 80.108 53.2813 80.138 53.4813 80.138C58.5413 80.138 63.6113 80.168 68.6713 80.138C72.2113 80.118 75.0013 78.008 75.8213 74.708C76.0713 73.678 76.0613 72.598 76.1713 71.538C76.0613 71.498 75.9613 71.468 75.8513 71.428C75.7013 71.618 75.5113 71.798 75.4113 72.018C74.2313 74.618 71.8113 75.958 69.2213 75.428C66.4913 74.868 64.6713 72.698 64.6613 69.828C64.6313 62.558 64.6413 55.288 64.6613 48.018C64.6613 45.368 66.1813 43.288 68.5713 42.518C70.9413 41.758 73.2113 42.548 74.8513 44.708C74.9213 44.798 75.0013 44.868 75.1613 45.058L75.1713 45.068ZM9.34134 46.638C9.34134 46.278 9.34134 45.928 9.34134 45.578C9.41134 42.458 9.25134 39.318 9.59134 36.238C10.4413 28.478 13.7113 21.788 19.1713 16.178C29.0013 6.06797 44.4713 2.89797 57.2213 8.77797C70.5713 14.938 77.4013 25.608 77.8513 40.318C77.9113 42.428 77.8513 44.548 77.8513 46.658C78.9313 47.108 79.9613 47.538 81.0513 47.988C81.0513 45.208 81.0513 42.528 81.0513 39.848C81.0513 36.658 80.6213 33.518 79.7813 30.438C75.6113 15.128 62.4913 4.11797 46.6713 2.84797C36.8213 2.05797 27.9113 4.74797 20.1913 10.958C13.0513 16.698 8.60133 24.118 6.80133 33.118C5.83133 37.988 6.21133 42.908 6.15133 47.808C6.15133 47.848 6.21131 47.888 6.25131 47.928C7.24131 47.508 8.24133 47.088 9.33133 46.628L9.34134 46.638ZM19.8013 58.898C19.8013 55.368 19.8013 51.838 19.8013 48.308C19.8013 47.838 19.8013 47.358 19.6613 46.918C19.2413 45.548 17.9713 44.798 16.4913 44.978C15.1413 45.148 14.0913 46.258 14.0613 47.688C14.0213 49.808 14.0513 51.918 14.0513 54.038C14.0513 59.298 14.0513 64.568 14.0713 69.828C14.0713 71.308 14.8613 72.398 16.1413 72.748C18.0413 73.258 19.7713 71.948 19.7913 69.928C19.8213 66.248 19.7913 62.578 19.8013 58.898ZM67.4113 58.848C67.4113 62.558 67.3913 66.258 67.4113 69.968C67.4213 71.648 68.7113 72.908 70.3113 72.878C71.8813 72.848 73.1313 71.608 73.1313 69.968C73.1513 62.618 73.1513 55.258 73.1313 47.908C73.1313 47.398 72.9913 46.848 72.7613 46.398C72.1513 45.228 70.8313 44.708 69.5213 45.018C68.3113 45.308 67.4113 46.398 67.4013 47.728C67.3813 51.438 67.4013 55.138 67.4013 58.848H67.4113ZM75.9413 68.668C79.5713 68.448 84.5413 64.848 84.4913 58.788C84.4413 52.758 79.4213 49.298 75.9413 49.128V68.668ZM11.2913 49.118C7.15132 49.428 2.13131 53.568 2.78131 60.118C3.21131 64.358 7.85132 69.078 11.2913 68.588V49.118ZM44.6613 79.138C43.1613 79.138 41.6613 79.158 40.1713 79.138C39.4113 79.128 39.1113 79.438 39.1313 80.188C39.1613 81.098 39.1513 82.008 39.1313 82.918C39.1213 83.498 39.3713 83.818 39.9513 83.818C43.0613 83.818 46.1813 83.818 49.2913 83.818C49.9113 83.818 50.1713 83.488 50.1513 82.858C50.1213 81.948 50.1213 81.038 50.1513 80.128C50.1813 79.398 49.8313 79.128 49.1413 79.138C47.6413 79.148 46.1413 79.138 44.6513 79.138H44.6613Z" fill="white"/>
<path d="M43.6614 27.368C48.3114 27.368 52.9614 27.368 57.6114 27.368C60.3014 27.368 61.9514 29.028 61.9514 31.718C61.9514 37.748 61.9514 43.788 61.9514 49.818C61.9514 52.578 60.3214 54.198 57.5614 54.198C55.1514 54.198 52.7314 54.178 50.3214 54.218C49.9414 54.218 49.4714 54.438 49.2214 54.718C48.0614 56.008 46.9814 57.368 45.8514 58.688C44.4814 60.308 42.7114 60.288 41.3414 58.668C40.2414 57.368 39.1714 56.028 38.0314 54.768C37.7614 54.468 37.2614 54.238 36.8514 54.228C34.3814 54.178 31.9014 54.218 29.4314 54.198C26.9614 54.188 25.2614 52.508 25.2614 50.048C25.2514 43.868 25.2514 37.688 25.2614 31.508C25.2614 29.058 26.9814 27.368 29.4414 27.358C34.1814 27.358 38.9214 27.358 43.6614 27.358V27.368ZM43.6114 57.208C45.0314 55.518 46.3714 53.958 47.6714 52.368C48.1414 51.798 48.6714 51.548 49.4214 51.558C52.1014 51.588 54.7714 51.568 57.4514 51.568C58.8214 51.568 59.2714 51.148 59.2814 49.798C59.2814 43.798 59.2814 37.798 59.2814 31.798C59.2814 30.498 58.8114 30.028 57.5414 30.028C48.2414 30.028 38.9514 30.028 29.6514 30.028C28.4514 30.028 27.9514 30.498 27.9514 31.658C27.9414 37.748 27.9414 43.838 27.9514 49.928C27.9514 51.108 28.4414 51.568 29.6314 51.568C32.2214 51.568 34.8114 51.618 37.4014 51.548C38.4914 51.518 39.2114 51.898 39.8714 52.728C41.0514 54.228 42.3114 55.658 43.6214 57.208H43.6114Z" fill="white"/>
<path d="M43.6112 36.668C40.3112 36.668 37.0212 36.668 33.7212 36.668C33.3712 36.668 33.0112 36.648 32.6712 36.568C32.0512 36.418 31.7312 35.978 31.7212 35.348C31.7212 34.678 32.0412 34.218 32.7012 34.058C33.0112 33.988 33.3412 33.968 33.6612 33.968C40.2812 33.968 46.9112 33.968 53.5312 33.968C53.8212 33.968 54.1212 33.968 54.4112 34.038C55.1112 34.178 55.4912 34.628 55.4812 35.338C55.4812 36.058 55.0712 36.488 54.3812 36.618C54.0612 36.678 53.7412 36.678 53.4112 36.678C50.1412 36.678 46.8712 36.678 43.6112 36.678V36.668Z" fill="white"/>
<path d="M43.5915 42.348C40.2615 42.348 36.9415 42.348 33.6115 42.348C33.2415 42.348 32.8415 42.3179 32.4915 42.1879C31.9015 41.9579 31.6615 41.468 31.7315 40.838C31.8015 40.208 32.1615 39.818 32.8015 39.728C33.1215 39.678 33.4515 39.6879 33.7715 39.6879C40.3315 39.6879 46.9015 39.6879 53.4615 39.6879C54.9015 39.6879 55.5115 40.098 55.4915 41.048C55.4715 41.938 54.8215 42.3579 53.4815 42.3579C50.1815 42.3579 46.8915 42.3579 43.5915 42.3579V42.348Z" fill="white"/>
<path d="M37.8612 48.018C36.3612 48.018 34.8612 48.018 33.3612 48.018C32.3212 48.018 31.7312 47.548 31.7212 46.718C31.7012 45.878 32.2812 45.378 33.3112 45.378C36.4012 45.378 39.4912 45.378 42.5812 45.378C43.5612 45.378 44.1212 45.858 44.1312 46.668C44.1412 47.508 43.5712 48.008 42.5412 48.018C40.9812 48.018 39.4212 48.018 37.8612 48.018Z" fill="white"/>
</svg>
