<svg width="97" height="71" viewBox="0 0 97 71" fill="none" xmlns="http://www.w3.org/2000/svg">
<path d="M96.41 69.8889C95.94 70.5189 95.4 71.0489 94.53 70.7289C93.67 70.4089 93.58 69.6789 93.59 68.8789C93.61 65.3989 93.59 61.9089 93.59 58.4289C93.59 56.1889 92.84 55.1989 90.66 54.5689C88.92 54.0589 87.18 53.5489 85.42 53.0889C85.14 53.0189 84.77 53.2089 84.45 53.3089C84.37 53.3289 84.31 53.4289 84.25 53.4989C83.29 54.4889 81.96 55.3189 81.46 56.4989C80.97 57.6489 81.33 59.1489 81.33 60.4989C81.33 63.2889 81.33 66.0889 81.32 68.8789C81.32 69.2789 81.33 69.7989 81.1 70.0389C80.75 70.3989 80.15 70.8289 79.74 70.7489C79.28 70.6689 78.86 70.0989 78.55 69.6489C78.38 69.4089 78.48 68.9789 78.48 68.6289C78.48 64.8289 78.5 61.0289 78.45 57.2389C78.45 56.7689 78.19 56.2389 77.88 55.8589C77.31 55.1589 76.61 54.5589 75.97 53.9089C75.2167 53.1556 74.31 52.9955 73.25 53.4289C75.37 55.5689 75.36 58.2689 75.31 60.9889C75.27 63.6889 75.31 66.3889 75.3 69.0889C75.3 70.1689 74.74 70.8289 73.87 70.8189C73.01 70.8189 72.49 70.1689 72.47 69.0689C72.47 68.8489 72.47 68.6289 72.47 68.4089C72.47 65.3289 72.47 62.2589 72.47 59.1789C72.47 56.4089 71.45 54.9589 68.85 54.0089C66.01 52.9689 63.16 51.9289 60.27 50.8689C59.1 52.6289 57.95 54.3489 56.81 56.0689C55.31 58.3189 53.42 58.5089 51.51 56.5989C50.96 56.0489 50.44 55.4789 49.72 54.7189C49.69 55.3189 49.66 55.6489 49.66 55.9689C49.66 60.1789 49.66 64.3789 49.66 68.5889C49.66 68.8989 49.67 69.2189 49.61 69.5289C49.47 70.2889 49.04 70.8089 48.22 70.8089C47.37 70.8089 46.91 70.2989 46.8 69.4689C46.76 69.1589 46.76 68.8389 46.76 68.5289C46.76 64.3889 46.76 60.2389 46.76 56.0989V54.7689C46 55.5189 45.44 56.0789 44.88 56.6289C43.01 58.4789 41.1 58.2989 39.64 56.1189C38.59 54.5589 37.54 52.9989 36.52 51.4189C36.25 50.9989 36 50.9089 35.54 51.0789C32.75 52.1089 29.95 53.0989 27.16 54.1489C25.01 54.9589 23.97 56.5189 23.95 58.9489C23.93 62.1489 23.95 65.3489 23.95 68.5589C23.95 68.8689 23.95 69.1889 23.92 69.4989C23.84 70.2989 23.38 70.7789 22.59 70.8189C21.78 70.8589 21.31 70.3789 21.14 69.6189C21.08 69.3489 21.1 69.0589 21.1 68.7789C21.1 65.9889 21.12 63.1889 21.1 60.3989C21.08 58.4089 21.1 56.4489 22.21 54.7089C20.84 53.7689 20.81 53.7389 19.71 54.8589C17.83 56.7489 15.63 57.6689 13.07 56.6689C11.89 56.2089 10.88 55.2589 9.89 54.4189C9.4 54.0089 9.08999 53.9189 8.51999 54.2389C7.36999 54.8789 6.17999 55.4489 4.98999 55.9989C3.47999 56.6989 2.8 57.8689 2.81 59.5189C2.83 62.6889 2.81 65.8589 2.81 69.0289C2.81 70.1889 2.28 70.8589 1.39 70.8489C0.499999 70.8489 0 70.1789 0 68.9989C0 65.7389 0 62.4689 0 59.2089C0 56.6289 1.17 54.7789 3.42 53.5989C4.55 53.0089 5.71 52.4489 6.97 51.8189C6.24 51.3989 5.56999 51.0889 4.98999 50.6689C4.22999 50.1289 3.49999 49.5289 2.79999 48.8989C1.67999 47.8889 1.42 46.8289 1.92 45.2289C2.54 43.2289 2.59999 41.0489 2.81999 38.9289C3.04999 36.7189 2.97999 34.4489 3.42999 32.2989C4.53999 26.9789 8.69 23.3589 14.06 22.7289C18.9 22.1589 23.95 25.3489 25.97 30.2189C26.8 32.2289 27 34.3289 27.12 36.4689C27.25 38.9089 27.46 41.3489 27.7 43.7789C27.77 44.4789 28.01 45.1889 28.27 45.8489C28.6 46.6989 28.47 47.4089 27.91 48.1189C26.64 49.7389 24.99 50.8389 23.12 51.7389C23.78 52.3289 24.3 52.3789 25.14 52.0189C27.87 50.8589 30.68 49.8789 33.47 48.8489C34.15 48.5989 34.62 48.2989 35.03 47.5789C35.57 46.6189 36.53 45.9089 37.24 45.0389C37.49 44.7289 37.65 44.2889 37.7 43.8889C38.02 41.3689 37.42 39.3489 35.53 37.3589C32.76 34.4589 31.72 30.6289 31.71 26.6189C31.71 24.6189 31.3 22.7589 30.84 20.8289C29.77 16.3489 29.5 11.7689 31.67 7.49889C34.07 2.77889 38.05 0.188893 43.35 0.0788928C50.41 -0.0711072 57.48 0.0388842 64.54 0.0388842C65.73 0.0388842 66.28 0.568885 66.28 1.75889C66.28 6.84889 66.34 11.9289 66.24 17.0189C66.21 18.5589 65.96 20.1789 65.42 21.6189C64.83 23.1789 64.76 24.7189 64.79 26.3089C64.84 29.2789 64.38 32.1689 62.86 34.7289C61.86 36.4089 60.49 37.8589 59.31 39.4289C59.05 39.7689 58.93 40.2089 58.75 40.6089C58.72 40.6889 58.75 40.7989 58.75 40.8889C58.36 43.3889 58.96 45.5089 61.1 47.0389C61.2 47.1089 61.32 47.2089 61.35 47.3189C61.64 48.6489 62.83 48.7589 63.81 49.1289C65.45 49.7489 67.12 50.2789 68.74 50.9389C69.61 51.2989 70.41 51.3489 71.27 50.9989C71.59 50.8689 71.93 50.7989 72.26 50.7089C74.05 50.1989 74.07 50.1989 73.96 48.3389C73.94 48.0389 73.79 47.6589 73.57 47.4689C70.65 45.0189 69.33 41.8689 69.45 38.0989C69.49 37.0289 69.21 36.0989 68.76 35.1389C66.25 29.8689 69.97 23.2189 75.8 22.8689C80.62 22.5789 85.46 22.7089 90.29 22.6789C91.4 22.6789 91.92 23.2689 91.92 24.4189C91.93 26.7389 92.01 29.0689 91.89 31.3889C91.83 32.6189 91.59 33.8989 91.1 35.0189C90.58 36.2089 90.35 37.3689 90.41 38.6389C90.49 40.3189 90.2 41.9389 89.51 43.4889C88.81 45.0689 87.79 46.4089 86.4 47.4389C85.52 48.0889 85.91 48.9989 85.96 49.7689C85.98 50.0589 86.64 50.3889 87.07 50.5289C88.5 50.9989 89.94 51.4289 91.39 51.7989C93.91 52.4289 95.63 53.8689 96.3 56.4389C96.31 56.4789 96.39 56.5089 96.44 56.5389V69.9089L96.41 69.8889ZM63.29 2.88889C63.17 2.87889 63.02 2.83889 62.87 2.83889C56.44 2.83889 50.01 2.76889 43.58 2.86889C38.64 2.94889 34.53 6.07889 33.46 10.7589C32.63 14.3589 32.7 18.0289 34.02 21.5889C34.34 22.4489 34.46 23.3989 34.55 24.3189C34.74 26.2789 34.64 28.2889 35.05 30.1989C36.25 35.8289 41.51 40.3089 46.9 40.7289C54.1 41.2889 59.29 36.7089 61.05 31.8589C61.94 29.4089 61.87 26.8789 61.94 24.3389C61.97 23.3689 62.27 22.3989 62.49 21.4289C62.73 20.3689 63.23 19.3189 63.25 18.2489C63.37 13.1989 63.37 8.14888 63.4 3.09888C63.4 3.04888 63.35 2.9889 63.3 2.8789L63.29 2.88889ZM88.91 25.5689C88.78 25.5589 88.59 25.5189 88.41 25.5189C84.68 25.5189 80.94 25.5089 77.21 25.5189C76.62 25.5189 76.02 25.5789 75.44 25.7189C71.71 26.5789 69.52 30.9389 71.54 34.3689C72.13 35.3789 72.3 36.4389 72.31 37.6089C72.32 38.8489 72.4 40.1289 72.71 41.3189C73.44 44.1189 76.18 46.4389 78.85 46.7289C82.18 47.0789 85.02 45.6389 86.58 42.8289C87.4 41.3489 87.59 39.7489 87.54 38.1089C87.5 36.7189 87.57 35.3789 88.34 34.1289C88.65 33.6189 88.86 32.9589 88.88 32.3589C88.94 30.1389 88.9 27.9189 88.9 25.5789L88.91 25.5689ZM24.25 37.5389C24.18 34.7289 23.95 32.2189 22.6 29.8989C19.61 24.7389 12.19 24.0489 8.34 28.5889C6.18 31.1289 5.72999 34.1289 5.76999 37.2889C5.76999 37.4689 6 37.7489 6.17 37.7989C7.01 38.0189 7.31 38.5889 7.36 39.3889C7.39 39.8889 7.43999 40.3889 7.54999 40.8789C8.25999 43.9489 11.07 46.4389 13.94 46.7389C18.08 47.1689 21.01 44.7389 22.12 41.9089C22.51 40.8989 22.51 40.0289 21.83 39.1089C20.01 36.6289 17.47 35.4789 14.57 34.8189C13.11 34.4889 12.02 34.7589 11.18 36.0089C11.01 36.2689 10.76 36.4789 10.53 36.6889C9.84 37.3289 9.00999 37.3689 8.42999 36.7889C7.85999 36.2289 7.86999 35.3889 8.51999 34.6889C9.25999 33.8789 9.98999 33.0489 10.82 32.3289C11.21 31.9989 11.83 31.7289 12.32 31.7489C17.01 31.9889 21.15 33.4489 24.26 37.5389H24.25ZM40.6 41.7489C40.6 42.2789 40.64 42.6589 40.6 43.0289C40.47 43.9689 40.82 44.5589 41.65 45.0789C43.61 46.3189 45.51 47.6489 47.39 49.0089C47.98 49.4289 48.39 49.4989 49.01 49.0389C50.83 47.7089 52.72 46.4689 54.58 45.1989C55.97 44.2489 56.17 43.6589 55.69 41.8789C50.71 44.2189 45.73 44.2789 40.6 41.7589V41.7489ZM57.01 46.9889C54.81 48.4989 52.65 49.9689 50.58 51.3889C51.77 52.5889 52.92 53.7289 54.12 54.9389C55.23 53.2689 56.38 51.5589 57.53 49.8489C58.2233 48.8155 58.0533 47.8622 57.02 46.9889H57.01ZM45.88 51.4089C44.19 50.2489 42.49 49.0889 40.79 47.9289C39.7967 47.2489 38.8967 47.3622 38.09 48.2689C38.09 48.2689 38.05 48.3789 38.01 48.4989C39.36 50.5189 40.72 52.5689 42.09 54.6189C42.17 54.7489 42.29 54.8489 42.35 54.9389C43.52 53.7689 44.66 52.6289 45.87 51.4089H45.88ZM11.94 49.4989C11.85 50.2389 11.46 51.1589 11.71 51.8689C11.96 52.5989 12.75 53.2289 13.44 53.6989C14.49 54.4089 15.6 54.2189 16.72 53.6489C18.71 52.6389 18.17 50.9589 18.01 49.5089H11.95L11.94 49.4989ZM76.76 49.4789C76.81 49.8289 76.71 50.4789 76.98 50.8089C77.86 51.8489 78.89 52.7689 79.94 53.8289C80.78 52.9489 81.52 52.0989 82.35 51.3389C82.98 50.7689 83.22 50.1689 82.98 49.4789H76.76ZM8.92999 49.3789C9.19999 48.3189 8.97999 47.5689 8.07999 47.0489C7.78999 46.8789 7.55 46.5989 7.34 46.3289C6.64 45.4089 5.95999 44.4789 5.28999 43.5789C5.07999 44.3789 4.82999 45.1889 4.68999 46.0089C4.62999 46.3189 4.70999 46.7789 4.90999 46.9789C6.01999 48.1089 7.37 48.8689 8.92 49.3689L8.92999 49.3789ZM21.01 49.3889C22.59 48.8389 23.96 48.0889 25.09 46.9289C25.23 46.7889 25.4 46.5389 25.36 46.3889C25.14 45.4489 24.87 44.5189 24.65 43.7489C23.71 44.8689 22.85 46.1089 21.77 47.0989C21.05 47.7589 20.75 48.3589 21.01 49.3989V49.3889Z" fill="white"/>
<path d="M87.5499 64.7989C87.5499 63.3889 87.5399 61.9788 87.5499 60.5688C87.5599 59.5388 88.0899 58.9489 88.9599 58.9489C89.8199 58.9489 90.3699 59.5489 90.3699 60.5789C90.3799 63.4289 90.3799 66.2789 90.3699 69.1289C90.3699 70.1489 89.8299 70.7889 88.9999 70.8089C88.1399 70.8389 87.5599 70.1789 87.5599 69.1189C87.5499 67.6789 87.5599 66.2389 87.5599 64.7989H87.5499Z" fill="white"/>
<path d="M8.82988 65.8589C8.82988 66.9889 8.83988 68.1189 8.82988 69.2489C8.80988 70.1889 8.24989 70.8089 7.44989 70.8189C6.63989 70.8289 6.02988 70.2089 6.01988 69.2889C5.99988 66.9689 5.99988 64.6489 6.01988 62.3289C6.01988 61.3989 6.62989 60.8089 7.45989 60.8189C8.28989 60.8289 8.81988 61.4189 8.82988 62.3789C8.84988 63.5389 8.82988 64.6989 8.82988 65.8589Z" fill="white"/>
<path d="M30.1398 66.3189C30.1398 65.4089 30.1098 64.5089 30.1398 63.5989C30.1798 62.5689 30.7298 61.9789 31.5798 61.9789C32.4398 61.9789 32.9898 62.5289 33.0098 63.5989C33.0498 65.4789 33.0498 67.3489 33.0098 69.2289C32.9898 70.2389 32.3598 70.8589 31.5498 70.8289C30.7298 70.7989 30.1798 70.1689 30.1498 69.1489C30.1198 68.2089 30.1498 67.2689 30.1498 66.3389L30.1398 66.3189Z" fill="white"/>
<path d="M66.26 66.3989C66.26 67.3389 66.28 68.2789 66.26 69.2089C66.23 70.1989 65.64 70.8289 64.8 70.8089C63.99 70.7889 63.45 70.1989 63.43 69.2289C63.41 67.3189 63.41 65.4089 63.43 63.5089C63.44 62.5389 63.99 61.9689 64.82 61.9689C65.65 61.9689 66.23 62.5389 66.26 63.4889C66.29 64.4589 66.26 65.4289 66.26 66.3989Z" fill="white"/>
<path d="M39.0898 16.2489C39.0898 17.3289 39.1198 18.3289 39.0898 19.3289C39.0498 20.3389 38.5498 20.9089 37.7398 20.9489C36.8998 20.9989 36.2798 20.4689 36.2298 19.5089C36.1698 18.3489 36.1598 17.1889 36.2598 16.0289C36.3798 14.6989 37.3798 13.6089 38.6098 13.4289C43.4498 12.6989 48.2898 12.5189 53.0998 13.6089C55.4398 14.1389 57.6198 15.0689 59.4398 16.7189C60.3198 17.5189 60.4698 18.2889 59.8398 18.9889C59.2698 19.6289 58.4098 19.6189 57.5998 18.8889C55.6398 17.1489 53.2598 16.4289 50.7598 16.0689C46.9198 15.5189 43.0798 15.6589 39.1098 16.2489H39.0898Z" fill="white"/>
<path d="M75.8397 30.1989C78.9197 30.3989 81.8397 30.5189 84.5597 31.6989C85.0697 31.9189 85.6198 32.4489 85.7898 32.9589C86.1198 33.9789 85.0297 34.7389 83.8597 34.4589C81.9797 34.0189 80.0997 33.5989 78.1997 33.2489C77.4397 33.1089 76.6398 33.1589 75.8598 33.1089C74.5698 33.0389 73.9697 32.5589 73.9897 31.6089C74.0097 30.6489 74.7097 30.1589 75.8497 30.1989H75.8397Z" fill="white"/>
</svg>
