<svg width="31" height="32" viewBox="0 0 31 32" fill="none" xmlns="http://www.w3.org/2000/svg">
<g clip-path="url(#clip0_11_3704)">
<path d="M4.5268 12.4629L3.50184 18.9745L1.57249 20.4215H13.2692L9.80236 18.9443L10.1943 16.4121C10.2144 16.4322 10.2345 16.4422 10.2546 16.4422C10.2747 16.4422 10.2947 16.4422 10.3148 16.4422C10.4354 16.4422 10.546 16.402 10.6465 16.3216C10.7469 16.2412 10.8173 16.1408 10.8575 16.0202L11.3398 14.0908C10.958 13.6889 10.6465 13.2668 10.4053 12.8247C10.1641 12.3825 10.0033 11.9404 9.92295 11.4983C9.90285 11.3777 9.88778 11.2621 9.87773 11.1516C9.86768 11.041 9.86265 10.9355 9.86265 10.835C9.86265 10.3728 9.95309 9.93066 10.134 9.50862C10.3148 9.08657 10.5761 8.70473 10.9178 8.36307C11.3398 7.94102 11.8171 7.64459 12.3497 7.47376C12.8823 7.30293 13.45 7.27781 14.053 7.3984C14.5956 7.47878 15.1282 7.68478 15.6507 8.01639C16.1732 8.348 16.6656 8.77507 17.1279 9.2976V7.3381C17.1279 7.17732 17.1831 7.04167 17.2937 6.93113C17.4042 6.8206 17.5399 6.76533 17.7006 6.76533C17.8614 6.76533 17.9971 6.8206 18.1076 6.93113C18.2181 7.04167 18.2734 7.17732 18.2734 7.3381V9.59906C18.2734 9.73974 18.2282 9.86032 18.1377 9.96081C18.0473 10.0613 17.9418 10.1216 17.8212 10.1417C17.9418 10.3226 18.0624 10.5135 18.183 10.7145C18.3036 10.9154 18.4241 11.1164 18.5447 11.3174H20.4138C20.7353 11.3174 21.0368 11.232 21.3182 11.0611C21.5995 10.8903 21.8105 10.6642 21.9512 10.3829L22.6144 9.02628H26.8047C26.9655 9.02628 27.1012 8.97102 27.2117 8.86048C27.3222 8.74994 27.3775 8.61429 27.3775 8.45351C27.3775 8.31283 27.3222 8.18722 27.2117 8.07668C27.1012 7.96615 26.9655 7.91088 26.8047 7.91088H22.6144L21.9512 6.55431C21.8105 6.27294 21.5995 6.04685 21.3182 5.87602C21.0368 5.70519 20.7353 5.61978 20.4138 5.61978H17.7911L15.8919 4.98671C15.3894 4.82593 14.882 4.70032 14.3695 4.60989C13.857 4.51945 13.3395 4.47423 12.817 4.47423H1.75336C1.29113 4.47423 0.894202 4.64506 0.562596 4.98671C0.230989 5.32837 0.0651855 5.73031 0.0651855 6.19255V10.7446C0.0651855 11.2068 0.230989 11.6088 0.562596 11.9505C0.894202 12.2921 1.29113 12.4629 1.75336 12.4629H4.5268ZM2.89892 6.76533H6.33557C6.47625 6.76533 6.60186 6.8206 6.71239 6.93113C6.82293 7.04167 6.87819 7.17732 6.87819 7.3381C6.87819 7.49888 6.82293 7.63454 6.71239 7.74508C6.60186 7.85561 6.47625 7.91088 6.33557 7.91088H2.89892C2.73814 7.91088 2.60248 7.85059 2.49194 7.73C2.38141 7.60942 2.32614 7.47878 2.32614 7.3381C2.32614 7.17732 2.38141 7.04167 2.49194 6.93113C2.60248 6.8206 2.73814 6.76533 2.89892 6.76533ZM2.89892 9.02628H6.33557C6.47625 9.02628 6.60186 9.08155 6.71239 9.19209C6.82293 9.30262 6.87819 9.43828 6.87819 9.59906C6.87819 9.75984 6.82293 9.89549 6.71239 10.006C6.60186 10.1166 6.47625 10.1718 6.33557 10.1718H2.89892C2.73814 10.1718 2.60248 10.1166 2.49194 10.006C2.38141 9.89549 2.32614 9.75984 2.32614 9.59906C2.32614 9.43828 2.38141 9.30262 2.49194 9.19209C2.60248 9.08155 2.73814 9.02628 2.89892 9.02628ZM1.21074 25.5463C1.21074 26.0086 1.37654 26.4105 1.70815 26.7522C2.03975 27.0938 2.43668 27.2646 2.89892 27.2646H12.003C12.4854 27.2646 12.8923 27.0938 13.2239 26.7522C13.5555 26.4105 13.7213 26.0086 13.7213 25.5463V21.567H1.21074V25.5463ZM29.3973 19.9392L24.8754 15.4172L17.9719 22.3207L22.4939 26.8426C22.6948 27.0436 22.9259 27.1441 23.1872 27.1441C23.4485 27.1441 23.6796 27.0436 23.8806 26.8426L24.6945 26.0287L23.7298 23.9486L25.6592 25.064L28.1613 22.5619L27.7091 21.356L28.8848 21.8384L29.3973 21.3259C29.5782 21.145 29.6686 20.9189 29.6686 20.6476C29.6686 20.3763 29.5782 20.1401 29.3973 19.9392ZM24.2725 14.2416L23.971 13.9401L22.7652 15.1761C22.6848 15.2364 22.5893 15.2665 22.4788 15.2665C22.3682 15.2665 22.2728 15.2364 22.1924 15.1761C22.112 15.0957 22.0718 15.0002 22.0718 14.8897C22.0718 14.7792 22.112 14.6837 22.1924 14.6033L23.3982 13.3673L22.5843 12.5534C22.5039 12.473 22.4034 12.4328 22.2828 12.4328C22.1622 12.4328 22.0618 12.473 21.9814 12.5534C21.5794 12.9553 21.082 13.307 20.4891 13.6085C19.8963 13.9099 19.3386 14.0205 18.816 13.9401C18.5347 13.8798 18.2935 13.7642 18.0925 13.5934C17.8916 13.4226 17.7207 13.1764 17.58 12.8548C17.0575 11.7495 16.4596 10.8451 15.7864 10.1417C15.1131 9.43828 14.4348 9.02628 13.7515 8.9057C13.4299 8.84541 13.1184 8.8655 12.817 8.96599C12.5155 9.06648 12.2442 9.22726 12.003 9.44833V9.47847C11.7619 9.69954 11.5961 9.96081 11.5056 10.2623C11.4152 10.5637 11.4001 10.8853 11.4604 11.2269C11.581 11.9103 11.993 12.5885 12.6964 13.2618C13.3998 13.9351 14.3042 14.5229 15.4095 15.0253C15.711 15.166 15.9522 15.3419 16.133 15.5529C16.3139 15.7639 16.4244 16.0001 16.4646 16.2613C16.5651 16.7839 16.4596 17.3466 16.1481 17.9495C15.8366 18.5524 15.4899 19.0448 15.1081 19.4267C15.0277 19.5071 14.9875 19.6075 14.9875 19.7281C14.9875 19.8487 15.0277 19.9492 15.1081 20.0296L16.7962 21.7178C16.8766 21.8183 16.9771 21.8685 17.0977 21.8685C17.2183 21.8685 17.3188 21.8183 17.3992 21.7178L24.2725 14.8445C24.3529 14.7641 24.3931 14.6636 24.3931 14.543C24.3931 14.4224 24.3529 14.3219 24.2725 14.2416ZM13.8419 11.2872C13.6812 11.4279 13.5003 11.4983 13.2993 11.4983C13.0983 11.4983 12.9275 11.4279 12.7868 11.2872C12.6461 11.1466 12.5758 10.9707 12.5758 10.7597C12.5758 10.5487 12.6461 10.3728 12.7868 10.2321C12.9275 10.0914 13.0983 10.0211 13.2993 10.0211C13.5003 10.0211 13.6812 10.0914 13.8419 10.2321C13.9826 10.3728 14.053 10.5487 14.053 10.7597C14.053 10.9707 13.9826 11.1466 13.8419 11.2872Z" fill="#63788F"/>
</g>
<defs>
<clipPath id="clip0_11_3704">
<rect width="30.8696" height="30.8696" fill="white" transform="matrix(1 0 0 -1 0.0651855 31.3042)"/>
</clipPath>
</defs>
</svg>
