<svg width="32" height="32" viewBox="0 0 32 32" fill="none" xmlns="http://www.w3.org/2000/svg">
<g clip-path="url(#clip0_11_3714)">
<path d="M0.1521 15.8694C0.1521 13.7792 0.554047 11.8097 1.35794 9.96075C2.14174 8.11179 3.22197 6.49898 4.59864 5.1223C5.97531 3.74563 7.58813 2.6654 9.43709 1.8816C11.286 1.07771 13.2556 0.67576 15.3457 0.67576C17.4358 0.67576 19.4054 1.07771 21.2543 1.8816C23.1033 2.6654 24.7161 3.74563 26.0928 5.1223C27.4695 6.49898 28.5497 8.11179 29.3335 9.96075C30.1374 11.8097 30.5393 13.7792 30.5393 15.8694C30.5393 17.9595 30.1374 19.929 29.3335 21.778C28.5497 23.627 27.4695 25.2398 26.0928 26.6164C24.7161 27.9931 23.1033 29.0733 21.2543 29.8571C19.4054 30.661 17.4358 31.063 15.3457 31.063C13.2556 31.063 11.286 30.661 9.43709 29.8571C7.58813 29.0733 5.97531 27.9931 4.59864 26.6164C3.22197 25.2398 2.14174 23.627 1.35794 21.778C0.554047 19.929 0.1521 17.9595 0.1521 15.8694ZM15.3457 29.0131C17.1545 29.0131 18.8527 28.6614 20.4404 27.9579C22.0482 27.2746 23.445 26.3401 24.6307 25.1544C25.8164 23.9686 26.751 22.5718 27.4343 20.9641C28.1377 19.3764 28.4894 17.6781 28.4894 15.8694C28.4894 14.3018 28.2181 12.7844 27.6755 11.3173C27.1328 9.85021 26.349 8.52378 25.3241 7.33804L6.81438 25.8477C8.00012 26.8727 9.32655 27.6565 10.7937 28.1991C12.2608 28.7417 13.7781 29.0131 15.3457 29.0131ZM2.20203 15.8694C2.20203 17.437 2.47335 18.9543 3.01598 20.4214C3.5586 21.8885 4.3424 23.215 5.36737 24.4007L8.38197 21.356C8.38197 21.3359 8.37695 21.3158 8.3669 21.2957C8.35685 21.2756 8.35183 21.2454 8.35183 21.2052V20.6325C8.35183 19.929 8.57792 19.3161 9.03011 18.7935C9.4823 18.271 10.0501 17.9495 10.7334 17.8289V16.9245H8.05037C7.92978 16.9245 7.8293 16.8793 7.74891 16.7888C7.66852 16.6984 7.62832 16.5929 7.62832 16.4723C7.62832 16.3517 7.66852 16.2462 7.74891 16.1558C7.8293 16.0653 7.92978 16.0201 8.05037 16.0201H10.7334V15.0856C10.0501 14.9851 9.4823 14.6686 9.03011 14.136C8.57792 13.6034 8.35183 12.9955 8.35183 12.3121V11.7092C8.35183 11.5886 8.39705 11.4831 8.48748 11.3927C8.57792 11.3022 8.68343 11.257 8.80402 11.257C8.9246 11.257 9.03011 11.3022 9.12055 11.3927C9.21099 11.4831 9.25621 11.5886 9.25621 11.7092V12.3121C9.25621 12.7543 9.39187 13.1512 9.66318 13.5029C9.9345 13.8546 10.2912 14.0807 10.7334 14.1812V13.7893C10.7334 13.5883 10.8037 13.4175 10.9444 13.2768C11.0851 13.1361 11.2659 13.0658 11.487 13.0658H14.8935V14.8746L15.7678 13.9702V13.0658H16.7023L17.5765 12.1614H11.9091V11.4379C11.9091 10.9757 12.0548 10.5637 12.3462 10.2019C12.6376 9.84016 13.0144 9.61909 13.4767 9.5387L13.1451 8.78505C13.0848 8.66447 13.0797 8.54891 13.13 8.43837C13.1802 8.32784 13.2556 8.24242 13.3561 8.18213C13.4767 8.14194 13.5922 8.14194 13.7028 8.18213C13.8133 8.22232 13.8987 8.30271 13.959 8.4233L14.4413 9.47841H16.2199L16.7023 8.4233C16.7626 8.30271 16.848 8.22232 16.9585 8.18213C17.0691 8.14194 17.1846 8.14194 17.3052 8.18213C17.4057 8.24242 17.4811 8.32784 17.5313 8.43837C17.5815 8.54891 17.5765 8.66447 17.5162 8.78505L17.1846 9.5387C17.5665 9.599 17.8981 9.76982 18.1794 10.0512C18.4608 10.3325 18.6417 10.6642 18.7221 11.046L23.8469 5.89103C22.6612 4.88616 21.3347 4.11241 19.8676 3.56978C18.4005 3.02715 16.8832 2.75584 15.3156 2.75584C13.5068 2.75584 11.8086 3.09749 10.2209 3.78081C8.63319 4.48421 7.24647 5.42879 6.06073 6.61453C4.87498 7.80028 3.94045 9.187 3.25714 10.7747C2.57383 12.3624 2.22213 14.0606 2.20203 15.8694ZM9.25621 20.5119L10.7334 19.0046C10.7334 19.0046 10.7334 18.9945 10.7334 18.9744V18.7333C10.3314 18.8337 9.99479 19.0448 9.72347 19.3663C9.45216 19.6879 9.2964 20.0597 9.25621 20.4817V20.5119ZM11.6377 21.7177L14.9237 18.4318C14.9639 18.5122 15.0191 18.5775 15.0895 18.6277C15.1598 18.678 15.2452 18.7031 15.3457 18.7031C15.4663 18.7031 15.5718 18.6579 15.6622 18.5674C15.7527 18.477 15.7979 18.3715 15.7979 18.2509V17.5576L19.8676 13.4878C19.9078 13.528 19.9329 13.5732 19.943 13.6235C19.953 13.6737 19.9581 13.729 19.9581 13.7893V14.1812C20.3801 14.0807 20.7318 13.8546 21.0132 13.5029C21.2945 13.1512 21.4352 12.7543 21.4352 12.3121V11.9202L22.0683 11.3173C22.1487 11.3374 22.214 11.3877 22.2642 11.4681C22.3145 11.5484 22.3396 11.6288 22.3396 11.7092V12.3121C22.3195 12.9955 22.0884 13.6034 21.6462 14.136C21.2041 14.6686 20.6414 14.9851 19.9581 15.0856V16.0201H22.6109C22.7516 16.0201 22.8621 16.0653 22.9425 16.1558C23.0229 16.2462 23.0631 16.3517 23.0631 16.4723C23.0631 16.5929 23.0229 16.6984 22.9425 16.7888C22.8621 16.8793 22.7516 16.9245 22.6109 16.9245H19.9581V17.8289C20.6414 17.9495 21.2041 18.271 21.6462 18.7935C22.0884 19.3161 22.3195 19.929 22.3396 20.6325V21.2052C22.3396 21.3459 22.2944 21.4564 22.2039 21.5368C22.1135 21.6172 22.008 21.6574 21.8874 21.6574C21.7668 21.6574 21.6613 21.6172 21.5709 21.5368C21.4804 21.4564 21.4352 21.3459 21.4352 21.2052V20.6325C21.4352 20.1903 21.2945 19.7934 21.0132 19.4417C20.7318 19.09 20.3801 18.8538 19.9581 18.7333V19.0046C19.9581 20.2707 19.5059 21.3509 18.6015 22.2453C17.6971 23.1396 16.6118 23.5868 15.3457 23.5868C14.6021 23.5868 13.9088 23.421 13.2656 23.0894C12.6225 22.7577 12.0799 22.3005 11.6377 21.7177Z" fill="#63788F"/>
</g>
<defs>
<clipPath id="clip0_11_3714">
<rect width="30.8696" height="30.8696" fill="white" transform="matrix(1 0 0 -1 0.1521 31.3042)"/>
</clipPath>
</defs>
</svg>
