<svg width="7" height="30" viewBox="0 0 7 30" fill="none" xmlns="http://www.w3.org/2000/svg">
<path d="M3.43302 6.79243H6.0201V24.8581C6.0201 25.8959 5.84105 26.7948 5.48295 27.5548C5.13216 28.3149 4.59867 28.9032 3.88247 29.3198C3.17358 29.7363 2.27834 29.9446 1.19673 29.9446C1.10903 29.9446 1.02134 29.9446 0.933639 29.9446C0.845941 29.9446 0.758244 29.9446 0.670546 29.9446V27.5329C0.758244 27.5329 0.838633 27.5329 0.911715 27.5329C0.984796 27.5329 1.06519 27.5329 1.15288 27.5329C1.94216 27.5329 2.5195 27.2991 2.88491 26.8313C3.25032 26.3709 3.43302 25.7132 3.43302 24.8581V6.79243ZM4.70464 3.9861C4.20038 3.9861 3.76554 3.81436 3.40013 3.47088C3.04204 3.1274 2.86299 2.71449 2.86299 2.23215C2.86299 1.74981 3.04204 1.3369 3.40013 0.993421C3.76554 0.649939 4.20038 0.478198 4.70464 0.478198C5.2089 0.478198 5.64008 0.649939 5.99818 0.993421C6.36358 1.3369 6.54629 1.74981 6.54629 2.23215C6.54629 2.71449 6.36358 3.1274 5.99818 3.47088C5.64008 3.81436 5.2089 3.9861 4.70464 3.9861Z" fill="#63788F"/>
</svg>
