<svg width="14" height="19" viewBox="0 0 14 19" fill="none" xmlns="http://www.w3.org/2000/svg">
<path d="M12.8164 4.62885L10.4925 5.28659C10.3463 4.89925 10.1307 4.52289 9.84568 4.15748C9.56798 3.78476 9.18795 3.47782 8.70562 3.23665C8.22328 2.99549 7.60574 2.8749 6.853 2.8749C5.82256 2.8749 4.96385 3.11242 4.27689 3.58745C3.59723 4.05517 3.2574 4.65078 3.2574 5.37428C3.2574 6.0174 3.49126 6.52532 3.95898 6.89803C4.4267 7.27075 5.15752 7.58134 6.15142 7.82982L8.6508 8.4437C10.1563 8.80911 11.2781 9.36818 12.0162 10.1209C12.7543 10.8663 13.1234 11.8274 13.1234 13.004C13.1234 13.9687 12.8457 14.831 12.2903 15.5911C11.7421 16.3511 10.9748 16.9504 9.98819 17.3889C9.0016 17.8273 7.85422 18.0466 6.54606 18.0466C4.82865 18.0466 3.40722 17.6739 2.28176 16.9284C1.15631 16.183 0.443768 15.0941 0.144135 13.6617L2.59967 13.0478C2.83353 13.954 3.27567 14.6337 3.92609 15.0868C4.58383 15.5399 5.44253 15.7665 6.50221 15.7665C7.70806 15.7665 8.66542 15.5107 9.37431 14.9991C10.0905 14.4802 10.4486 13.859 10.4486 13.1355C10.4486 12.5509 10.244 12.0612 9.83472 11.6666C9.42547 11.2646 8.79697 10.965 7.94922 10.7677L5.1429 10.11C3.60088 9.74455 2.46812 9.17817 1.74462 8.41081C1.02842 7.63615 0.67032 6.66782 0.67032 5.50583C0.67032 4.55577 0.937067 3.71534 1.47056 2.98452C2.01136 2.25371 2.74583 1.68002 3.67396 1.26346C4.60941 0.846894 5.66909 0.638613 6.853 0.638613C8.51926 0.638613 9.82741 1.00402 10.7775 1.73483C11.7348 2.46565 12.4145 3.43032 12.8164 4.62885Z" fill="#63788F"/>
</svg>
