<svg width="32" height="20" viewBox="0 0 32 20" fill="none" xmlns="http://www.w3.org/2000/svg">
<path d="M30.9959 11.7585L25.449 6.27193V2.59411C25.449 2.39314 25.3736 2.21226 25.2229 2.05148C25.0722 1.8907 24.8863 1.81031 24.6652 1.81031C24.4642 1.81031 24.2733 1.88568 24.0924 2.03641C23.9115 2.18714 23.8211 2.37304 23.8211 2.59411V4.58375L19.8418 0.664764C19.7212 0.524082 19.5404 0.453741 19.2992 0.453741C19.058 0.453741 18.8571 0.524082 18.6963 0.664764L14.5361 4.82492C14.6165 4.84502 14.6869 4.87516 14.7471 4.91536C14.8074 4.95555 14.8577 5.02589 14.8979 5.12638L15.6817 5.97047L19.2992 2.35294L29.8503 12.9041C29.9106 12.9845 29.996 13.0447 30.1066 13.0849C30.2171 13.1251 30.3327 13.1452 30.4532 13.1452C30.5336 13.1452 30.6291 13.1302 30.7396 13.1C30.8502 13.0699 30.9356 13.0046 30.9959 12.9041C31.1366 12.7835 31.2069 12.6076 31.2069 12.3765C31.2069 12.1454 31.1366 11.9394 30.9959 11.7585ZM28.6445 12.7232L19.8418 3.98083C19.7815 3.90044 19.7062 3.84015 19.6157 3.79995C19.5253 3.75976 19.4198 3.73966 19.2992 3.73966C19.1786 3.73966 19.0731 3.75473 18.9827 3.78488C18.8922 3.81503 18.7968 3.88034 18.6963 3.98083L16.2243 6.45281L16.7066 6.99544C16.8473 7.11602 16.9528 7.25168 17.0232 7.40241C17.0935 7.55314 17.1488 7.71894 17.189 7.89982C17.3699 8.62332 17.3045 9.44229 16.993 10.3567C16.6815 11.2712 16.1037 11.9595 15.2596 12.4217C15.0788 12.5423 14.8527 12.6428 14.5813 12.7232C14.31 12.8036 13.9734 12.8438 13.5714 12.8438C13.3906 12.8438 13.2097 12.8337 13.0288 12.8136C12.8479 12.7935 12.647 12.7634 12.4259 12.7232L12.0641 13.3864L14.8979 16.9436C15.0788 17.1446 15.2094 17.3757 15.2898 17.637C15.3702 17.8983 15.3802 18.1495 15.3199 18.3906C15.2998 18.6318 15.2395 18.878 15.139 19.1292C15.0386 19.3804 14.8778 19.5965 14.6567 19.7774C14.5964 19.7975 14.5612 19.8125 14.5512 19.8226C14.5411 19.8326 14.516 19.8578 14.4758 19.8979H15.9831C16.2846 19.8979 16.5559 19.8427 16.7971 19.7321C17.0382 19.6216 17.2493 19.4558 17.4301 19.2347C17.611 19.0539 17.7366 18.8479 17.807 18.6167C17.8773 18.3856 17.9125 18.1495 17.9125 17.9083V14.7128C17.9125 14.331 18.0431 14.0094 18.3044 13.7482C18.5656 13.4869 18.8973 13.3261 19.2992 13.2658C19.661 13.3261 19.9825 13.4919 20.2639 13.7632C20.5452 14.0345 20.6859 14.3511 20.6859 14.7128V17.9083C20.6859 18.1495 20.7261 18.3856 20.8065 18.6167C20.8869 18.8479 21.0075 19.0539 21.1683 19.2347C21.3491 19.4357 21.5652 19.5965 21.8164 19.7171C22.0676 19.8377 22.3339 19.8979 22.6153 19.8979H26.8357C27.3783 19.8979 27.8456 19.712 28.2375 19.3402C28.6294 18.9684 28.8254 18.4911 28.8254 17.9083V13.6276C28.8254 13.5673 28.8254 13.507 28.8254 13.4467C28.8254 13.3864 28.8053 13.3261 28.7651 13.2658C28.7651 13.1452 28.755 13.0397 28.7349 12.9493C28.7148 12.8588 28.6847 12.7835 28.6445 12.7232ZM10.5568 13.3864L12.1847 11.2762C12.7877 11.6379 13.3253 11.7786 13.7975 11.6982C14.2698 11.6178 14.5964 11.5173 14.7773 11.3968C15.34 11.0953 15.7319 10.623 15.953 9.9799C16.1741 9.33678 16.2444 8.74391 16.164 8.20128C16.1037 8.12089 16.0585 8.05055 16.0284 7.99026C15.9982 7.92996 15.963 7.87972 15.9228 7.83953C15.9228 7.83953 15.9228 7.84957 15.9228 7.86967C15.9228 7.88977 15.9027 7.89982 15.8625 7.89982L14.3552 9.40712C14.1543 9.60809 13.883 9.70858 13.5413 9.70858C13.1996 9.70858 12.9082 9.60809 12.6671 9.40712L12.4862 9.22624C12.2852 8.98508 12.1847 8.69869 12.1847 8.36708C12.1847 8.03547 12.2852 7.75914 12.4862 7.53806L13.9935 6.03076C13.9935 6.03076 14.0136 6.01066 14.0538 5.97047C14.0337 5.95037 13.9834 5.90515 13.9031 5.83481C13.8227 5.76447 13.7523 5.7293 13.692 5.7293C13.1896 5.64891 12.6068 5.71423 11.9436 5.92525C11.2803 6.13627 10.798 6.5332 10.4966 7.11602C10.3559 7.31699 10.2554 7.6888 10.1951 8.23142C10.1348 8.77405 10.376 9.40712 10.9186 10.1306L9.47158 11.9997L6.57756 8.38215C6.75844 8.20128 6.93429 8.03547 7.10512 7.88474C7.27595 7.73401 7.44175 7.57826 7.60253 7.41748C7.66282 7.2969 7.74823 7.21651 7.85877 7.17631C7.96931 7.13612 8.10496 7.11602 8.26574 7.11602C8.34613 7.11602 8.42652 7.12607 8.50691 7.14617C8.5873 7.16626 8.62749 7.17631 8.62749 7.17631C8.70788 7.19641 8.8134 7.19641 8.94403 7.17631C9.07466 7.15621 9.17012 7.11602 9.23042 7.05573C9.31081 6.93514 9.351 6.80954 9.351 6.6789C9.351 6.54827 9.31081 6.45281 9.23042 6.39252C8.80837 5.95037 8.41145 5.64891 8.03965 5.48813C7.66785 5.32735 7.36136 5.24696 7.12019 5.24696C6.75844 5.24696 6.46703 5.29721 6.24596 5.39769C6.02488 5.49818 5.89425 5.56852 5.85406 5.60872L3.2012 7.83953H2.4777C2.41741 7.83953 2.35711 7.84957 2.29682 7.86967C2.23653 7.88977 2.17624 7.91992 2.11595 7.96011L0.789519 9.28654C0.769422 9.30663 0.734251 9.34683 0.684008 9.40712C0.633764 9.46741 0.608643 9.5478 0.608643 9.64829C0.608643 9.70858 0.62874 9.76887 0.668935 9.82917C0.709129 9.88946 0.749324 9.94975 0.789519 10.01L2.83945 11.9997C2.85955 12.0198 2.90979 12.0449 2.99018 12.075C3.07057 12.1052 3.14091 12.1203 3.2012 12.1203C3.28159 12.1203 3.34691 12.1102 3.39715 12.0901C3.4474 12.07 3.50266 12.0399 3.56296 11.9997L4.7688 10.9144C4.82909 10.8943 4.87431 10.8541 4.90446 10.7938C4.9346 10.7335 4.94968 10.6532 4.94968 10.5527V9.82917C4.96977 9.80907 5.00997 9.76887 5.07026 9.70858C5.13055 9.64829 5.21094 9.5679 5.31143 9.46741L8.38633 13.2658L4.58792 18.0289C4.44724 18.2098 4.38695 18.4057 4.40705 18.6167C4.42714 18.8278 4.52763 19.0137 4.70851 19.1744C4.7889 19.2347 4.87431 19.29 4.96475 19.3402C5.05519 19.3905 5.15065 19.4156 5.25114 19.4156C5.33153 19.4156 5.43704 19.3905 5.56767 19.3402C5.6983 19.29 5.79377 19.2146 5.85406 19.1142L9.41129 14.6525L12.6068 18.6921C12.6872 18.7725 12.7877 18.8328 12.9082 18.873C13.0288 18.9132 13.1494 18.9333 13.27 18.9333C13.3906 18.9333 13.486 18.9182 13.5564 18.8881C13.6267 18.8579 13.692 18.8127 13.7523 18.7524C13.9332 18.6117 14.0387 18.4308 14.0689 18.2098C14.099 17.9887 14.0538 17.7877 13.9332 17.6068L10.5568 13.3864Z" fill="#63788F"/>
</svg>
