<svg width="91" height="91" viewBox="0 0 91 91" fill="none" xmlns="http://www.w3.org/2000/svg">
<path d="M0.01 58.0108C0.25 56.2408 0.5 54.4708 0.72 52.7008C1.08 49.9008 1.39 47.1008 1.77 44.3008C1.97 42.8108 2.72 41.6108 3.88 40.6508C5.49 39.3208 7.08 37.9608 8.7 36.6508C9.2 36.2508 9.44 35.8408 9.42 35.1708C9.37 33.2908 9.4 31.4008 9.4 29.5208C9.4 27.5708 10.32 26.6708 12.28 26.6508C14.46 26.6408 16.64 26.6308 18.81 26.6508C19.37 26.6508 19.63 26.5108 19.78 25.9308C20.79 22.1008 24.09 19.5208 27.95 19.5108C31.86 19.5108 35.15 22.0608 36.19 25.9508C36.33 26.4708 36.55 26.6508 37.09 26.6508C39.33 26.6208 41.56 26.6408 43.8 26.6408C47.64 26.6408 51.48 26.6408 55.32 26.6408C55.52 26.6408 55.72 26.6108 56.04 26.5908C55.96 25.6608 55.89 24.7608 55.81 23.8708C55.55 21.0108 56.16 18.3208 57.45 15.7708C58.37 13.9608 59.26 12.1408 60.21 10.2308C58.56 9.4208 58.38 7.9708 58.46 6.3708C58.52 5.2508 58.46 4.1308 58.47 3.0208C58.49 1.2608 59.6 0.0907981 61.37 0.0207981C62.52 -0.0192019 63.67 0.0108036 64.81 0.0108036C70.55 0.0108036 76.29 0.0108036 82.03 0.0108036C84.56 0.0108036 85.6 1.06081 85.6 3.61081C85.6 4.67081 85.6 5.7308 85.6 6.7908C85.6 9.1208 84.97 9.93081 82.52 10.5908C82.71 11.5108 82.74 12.5208 83.13 13.3608C84.89 17.1408 86.63 20.9408 88.62 24.5908C90.21 27.5008 90.66 30.4508 90.19 33.6808C89.64 37.4308 89.25 41.2008 88.83 44.9708C88.61 46.9708 87.85 48.6108 86.22 49.8708C84.59 51.1308 83.03 52.4808 81.48 53.8308C81.22 54.0608 81.04 54.5208 81.03 54.8708C80.99 56.8708 81.01 58.8708 81.01 60.8708C81.01 62.8708 80.08 63.7908 78.1 63.7908C75.69 63.7908 73.28 63.7908 70.9 63.7908C68.98 68.8108 66.49 70.8908 62.44 70.8908C58.4 70.8908 55.87 68.7908 53.96 63.7508H34.4C34.48 64.7408 34.55 65.5808 34.63 66.4208C34.87 69.2208 34.28 71.8508 33.02 74.3508C32.08 76.2108 31.17 78.0808 30.23 79.9708C31.58 80.7008 32.04 81.8408 31.98 83.3008C31.92 84.6208 31.98 85.9508 31.96 87.2708C31.94 88.8908 30.86 90.0608 29.24 90.1808C28.39 90.2408 27.53 90.2108 26.68 90.2108C20.59 90.2108 14.5 90.2108 8.4 90.2108C5.86 90.2108 4.82 89.1608 4.82 86.6208C4.82 85.5908 4.82 84.5608 4.82 83.5308C4.82 81.1108 5.41 80.3208 7.9 79.6308C7.71 78.7108 7.6 77.7608 7.3 76.8608C6.94 75.7808 6.41 74.7508 5.97 73.7008C5.6 72.8208 5.86 72.1008 6.61 71.7808C7.33 71.4708 8.02 71.7408 8.39 72.5908C9.36 74.8408 10.68 77.0008 10.39 79.7608H11.29C16.38 79.7608 21.47 79.7508 26.56 79.7708C27.15 79.7708 27.45 79.6008 27.7 79.0708C28.54 77.2908 29.38 75.5108 30.32 73.7808C31.84 70.9808 32.2 68.0608 31.81 64.9108C31.44 61.8508 31.26 58.7608 31.18 55.6808C31.09 51.9708 31.18 48.2608 31.2 44.5608C31.2 44.1208 31.18 43.6808 31.13 43.2408C30.97 41.8808 30.06 41.3708 28.91 42.1108C28.21 42.5608 27.56 43.1708 27.07 43.8508C25.21 46.4108 24.2 49.2808 24.19 52.4808C24.19 54.5408 24.19 56.6008 24.19 58.6608C24.19 60.4608 23.29 61.8208 21.57 62.4608C19.88 63.0908 18.25 63.1508 16.85 61.7108C15.23 60.0508 13.59 58.4008 11.92 56.7808C10.2 55.1008 9.4 53.0708 9.4 50.6908C9.4 47.3608 9.4 44.0408 9.4 40.7108C9.4 40.3908 9.4 40.0708 9.4 39.4608C7.78 40.8908 6.14 41.9908 4.99 43.4808C4.29 44.3808 4.24 45.8408 4.08 47.0808C3.59 50.8408 3.23 54.6108 2.74 58.3708C2.52 60.1008 2.81 61.7108 3.59 63.2308C4.17 64.3508 4.8 65.4508 5.39 66.5708C5.87 67.4708 5.69 68.2308 4.95 68.6308C4.24 69.0108 3.49 68.7608 3.07 67.8908C2.11 65.9508 1.21 63.9808 0.3 62.0108C0.16 61.7008 0.1 61.3508 0 61.0208C0 60.0208 0 59.0208 0 58.0208L0.01 58.0108ZM46.58 61.1108C46.98 61.1108 47.29 61.1108 47.61 61.1108C50.05 61.1108 52.49 61.1108 54.94 61.1108C56.15 61.1108 56.6 61.5508 56.68 62.7208C56.89 65.8608 59.37 68.2408 62.44 68.2508C65.52 68.2508 67.98 65.9008 68.21 62.7408C68.3 61.5508 68.73 61.1208 69.94 61.1108C72.38 61.1008 74.82 61.1108 77.27 61.1108C77.59 61.1108 77.9 61.1108 78.24 61.1108C78.27 60.8008 78.31 60.6008 78.31 60.4008C78.31 53.3408 78.31 46.2808 78.31 39.2208C78.31 37.7608 77.79 36.5308 76.76 35.5008C75.16 33.9008 73.54 32.3108 71.96 30.6908C71.34 30.0508 70.67 29.9408 69.88 30.2308C69.06 30.5408 68.87 31.2008 68.88 32.0008C68.9 33.9708 68.88 35.9408 68.88 37.9108C68.91 41.6008 67.69 44.8808 65.6 47.8708C64.71 49.1408 63.64 50.2208 62.15 50.8008C59.73 51.7408 57.36 50.5908 56.76 48.1408C56.59 47.4408 56.54 46.6908 56.54 45.9608C56.52 40.8408 56.54 35.7208 56.53 30.6008C56.53 29.3708 56.51 29.3708 55.32 29.3708C52.73 29.3708 50.14 29.3708 47.55 29.3708C47.24 29.3708 46.93 29.3708 46.57 29.3708C46.57 32.1908 46.57 34.8608 46.57 37.5408C46.57 38.9608 46.16 39.3908 44.76 39.4608C41.92 39.6008 39.49 42.0608 39.38 44.9108C39.25 48.1608 41.58 50.7608 44.83 51.0008C46.17 51.1008 46.57 51.5308 46.58 52.9008C46.58 53.4908 46.58 54.0808 46.58 54.6708C46.58 56.7808 46.58 58.9008 46.58 61.1308V61.1108ZM61.19 7.6208C61.26 7.6608 61.31 7.72081 61.36 7.72081C62.12 7.74081 62.89 7.75081 63.65 7.78081C64.59 7.82081 65.13 8.2808 65.17 9.0408C65.21 9.8408 64.66 10.4308 63.72 10.4508C63.23 10.4608 63 10.6408 62.79 11.0608C61.75 13.2008 60.68 15.3208 59.63 17.4608C58.53 19.7208 58.23 22.0908 58.58 24.5808C58.84 26.4408 59.11 28.3208 59.15 30.1908C59.24 35.3408 59.21 40.4908 59.24 45.6408C59.24 46.1708 59.27 46.7008 59.34 47.2208C59.49 48.2508 60.15 48.6908 61.1 48.2908C61.72 48.0208 62.34 47.5808 62.79 47.0708C64.99 44.5408 66.12 41.5508 66.23 38.2108C66.31 35.9508 66.23 33.6808 66.25 31.4108C66.27 29.7308 67.26 28.3008 68.91 27.7108C70.55 27.1208 72.16 27.1308 73.51 28.4508C75.15 30.0508 76.74 31.7208 78.39 33.3108C80.22 35.0708 81.05 37.1908 81.04 39.7108C81.02 43.0108 81.04 46.3008 81.04 49.6008C81.04 49.9008 81.07 50.2108 81.09 50.6608C82.29 49.6508 83.33 48.6908 84.46 47.8708C85.67 46.9908 86.07 45.8008 86.23 44.3908C86.64 40.6508 87.02 36.9108 87.57 33.1908C87.95 30.6108 87.57 28.3108 86.35 25.9808C83.77 21.0208 80.56 16.3008 79.83 10.4808C76.82 10.4808 73.73 10.4808 70.64 10.4808C70.26 10.4808 69.77 10.5208 69.54 10.3108C69.18 9.97081 68.84 9.4608 68.77 8.9908C68.68 8.3808 69.15 7.9708 69.77 7.8508C70.08 7.7908 70.41 7.7908 70.74 7.7908C74.42 7.7908 78.1 7.7908 81.78 7.7908C82.13 7.7908 82.47 7.7908 82.84 7.7908V2.7708H61.21V7.6308L61.19 7.6208ZM12.2 29.3708C12.17 29.6208 12.15 29.7608 12.15 29.9008C12.15 36.9908 12.15 44.0808 12.15 51.1708C12.15 52.6108 12.73 53.7808 13.73 54.7808C15.31 56.3608 16.91 57.9208 18.46 59.5308C19.08 60.1808 19.75 60.3008 20.53 60.0108C21.35 59.7208 21.57 59.0708 21.56 58.2608C21.54 56.2908 21.57 54.3208 21.56 52.3508C21.52 48.6608 22.74 45.3808 24.82 42.3908C25.76 41.0408 26.91 39.9108 28.52 39.3808C31.03 38.5408 33.26 39.8408 33.74 42.4308C33.86 43.0608 33.9 43.7108 33.9 44.3608C33.91 49.2708 33.9 54.1908 33.9 59.1008C33.9 59.4808 33.92 59.8608 33.93 60.2508C33.93 60.8908 34.19 61.1508 34.89 61.1408C37.45 61.0908 40.01 61.1208 42.57 61.1208C42.97 61.1208 43.37 61.1208 43.8 61.1208C43.83 60.8008 43.86 60.6008 43.86 60.3908C43.86 58.1608 43.86 55.9308 43.86 53.6608C43.59 53.5808 43.37 53.5008 43.15 53.4408C39.25 52.3808 36.72 49.1308 36.73 45.1908C36.74 41.2508 39.28 38.0208 43.21 37.0008C43.77 36.8608 43.88 36.5908 43.87 36.0808C43.85 34.0808 43.87 32.0808 43.86 30.0808C43.86 29.8608 43.81 29.6308 43.78 29.3608C41.34 29.3608 38.96 29.3608 36.58 29.3608C34.85 29.3608 34.06 28.7008 33.73 27.0108C33.17 24.1908 30.8 22.1908 28.01 22.1908C25.26 22.1908 22.88 24.1508 22.29 26.9108C21.89 28.7808 21.18 29.3608 19.26 29.3608C16.94 29.3608 14.62 29.3608 12.2 29.3608V29.3708ZM29.31 87.4808C29.31 86.1308 29.26 84.7908 29.33 83.4508C29.37 82.6608 29.1 82.4608 28.34 82.4708C21.72 82.5008 15.1 82.4908 8.49 82.4908C8.21 82.4908 7.93 82.5308 7.62 82.5508V87.4908H29.32L29.31 87.4808Z" fill="white"/>
</svg>
