<svg width="32" height="26" viewBox="0 0 32 26" fill="none" xmlns="http://www.w3.org/2000/svg">
<path d="M12.3691 12.0558L22.1365 13.1411C22.2972 13.1612 22.4379 13.121 22.5585 13.0205C22.6791 12.92 22.7394 12.7894 22.7394 12.6286L22.7997 12.1463C22.8801 11.4831 22.7092 10.8852 22.2872 10.3526C21.8651 9.82 21.3125 9.52357 20.6292 9.46327L14.6301 8.80006C13.9669 8.71967 13.369 8.89552 12.8364 9.32762C12.3038 9.75971 11.9973 10.3074 11.9169 10.9706L11.8868 11.4529C11.8667 11.6137 11.9069 11.7544 12.0074 11.875C12.1079 11.9955 12.2284 12.0558 12.3691 12.0558ZM26.3268 17.1807C26.2263 16.5375 25.9399 15.9899 25.4676 15.5377C24.9953 15.0855 24.4376 14.8293 23.7945 14.769L9.95745 13.2918L6.40021 0.992231C6.33992 0.77116 6.21431 0.590284 6.02338 0.449602C5.83246 0.30892 5.61641 0.238579 5.37524 0.238579H1.60699C1.30553 0.238579 1.04928 0.339066 0.838262 0.540039C0.62724 0.741014 0.521729 0.992231 0.521729 1.29369C0.521729 1.59515 0.62724 1.85139 0.838262 2.06242C1.04928 2.27344 1.30553 2.37895 1.60699 2.37895H4.5613L7.90751 13.9249C7.90751 13.945 7.91254 13.9701 7.92259 14.0003C7.93263 14.0304 7.94771 14.0555 7.96781 14.0756V17.1807C9.03297 17.5424 9.89213 18.1805 10.5453 19.0949C11.1985 20.0094 11.525 21.0293 11.525 22.1548C11.525 22.4562 11.4949 22.7577 11.4346 23.0591C11.3743 23.3606 11.2939 23.6621 11.1934 23.9635H23.1011C23.0006 23.6621 22.9203 23.3606 22.86 23.0591C22.7997 22.7577 22.7695 22.4562 22.7695 22.1548C22.7695 21.0293 23.0961 20.0094 23.7493 19.0949C24.4024 18.1805 25.2616 17.5424 26.3268 17.1807ZM19.4535 20.2556H14.3889C14.1678 20.2556 13.9819 20.1752 13.8312 20.0144C13.6805 19.8536 13.6051 19.6627 13.6051 19.4416C13.6051 19.2205 13.6805 19.0296 13.8312 18.8688C13.9819 18.7081 14.1678 18.6277 14.3889 18.6277H19.4535C19.6745 18.6277 19.8654 18.7081 20.0262 18.8688C20.187 19.0296 20.2674 19.2205 20.2674 19.4416C20.2674 19.6627 20.187 19.8536 20.0262 20.0144C19.8654 20.1752 19.6745 20.2556 19.4535 20.2556ZM27.8642 18.4468C26.8794 18.4468 26.0404 18.7935 25.347 19.4868C24.6537 20.1802 24.317 21.0092 24.3371 21.9739C24.3371 22.9587 24.6788 23.7927 25.3621 24.476C26.0454 25.1593 26.8794 25.501 27.8642 25.501C28.8289 25.501 29.6579 25.1593 30.3513 24.476C31.0446 23.7927 31.3913 22.9587 31.3913 21.9739C31.3913 21.0092 31.0446 20.1802 30.3513 19.4868C29.6579 18.7935 28.8289 18.4468 27.8642 18.4468ZM27.8642 23.0591C27.5627 23.0591 27.3065 22.9536 27.0955 22.7426C26.8845 22.5316 26.7789 22.2753 26.7789 21.9739C26.7789 21.6724 26.8845 21.4212 27.0955 21.2202C27.3065 21.0193 27.5627 20.9188 27.8642 20.9188C28.1456 20.9188 28.3918 21.0193 28.6028 21.2202C28.8138 21.4212 28.9193 21.6724 28.9193 21.9739C28.9193 22.2753 28.8188 22.5316 28.6179 22.7426C28.4169 22.9536 28.1657 23.0591 27.8642 23.0591ZM6.33992 18.4468C5.37524 18.4468 4.54623 18.7935 3.85287 19.4868C3.15951 20.1802 2.81283 21.0092 2.81283 21.9739C2.81283 22.9587 3.15951 23.7927 3.85287 24.476C4.54623 25.1593 5.37524 25.501 6.33992 25.501C7.32469 25.501 8.15873 25.1593 8.84204 24.476C9.52535 23.7927 9.86701 22.9587 9.86701 21.9739C9.86701 21.0092 9.52535 20.1802 8.84204 19.4868C8.15873 18.7935 7.32469 18.4468 6.33992 18.4468ZM6.33992 23.0591C6.03846 23.0591 5.78222 22.9536 5.57119 22.7426C5.36017 22.5316 5.25466 22.2753 5.25466 21.9739C5.25466 21.6724 5.36017 21.4212 5.57119 21.2202C5.78222 21.0193 6.03846 20.9188 6.33992 20.9188C6.64138 20.9188 6.89762 21.0193 7.10864 21.2202C7.31966 21.4212 7.42518 21.6724 7.42518 21.9739C7.42518 22.2753 7.31966 22.5316 7.10864 22.7426C6.89762 22.9536 6.64138 23.0591 6.33992 23.0591Z" fill="#63788F"/>
</svg>
