<svg width="31" height="20" viewBox="0 0 31 20" fill="none" xmlns="http://www.w3.org/2000/svg">
<path d="M24.8159 10.4426C24.0924 10.4426 23.4694 10.7038 22.9469 11.2264C22.4243 11.7489 22.1631 12.3719 22.1631 13.0954C22.1631 13.839 22.4243 14.4671 22.9469 14.9795C23.4694 15.492 24.0924 15.7483 24.8159 15.7483C25.5394 15.7483 26.1625 15.492 26.685 14.9795C27.2075 14.4671 27.4688 13.839 27.4688 13.0954C27.4688 12.3719 27.2075 11.7489 26.685 11.2264C26.1625 10.7038 25.5394 10.4426 24.8159 10.4426ZM24.8159 14.1505C24.5145 14.1505 24.2633 14.05 24.0623 13.8491C23.8613 13.6481 23.7608 13.3969 23.7608 13.0954C23.7608 12.814 23.8613 12.5679 24.0623 12.3568C24.2633 12.1458 24.5145 12.0403 24.8159 12.0403C25.1174 12.0403 25.3686 12.1458 25.5696 12.3568C25.7706 12.5679 25.871 12.814 25.871 13.0954C25.871 13.3969 25.7706 13.6481 25.5696 13.8491C25.3686 14.05 25.1174 14.1505 24.8159 14.1505ZM30.0613 10.2617V9.56832C30.0613 9.00559 29.9156 8.47301 29.6242 7.97058C29.3328 7.46814 28.8957 7.15663 28.3129 7.03605C27.931 6.93556 27.5391 6.82503 27.1372 6.70444C26.7352 6.58386 26.4137 6.33264 26.1725 5.95079L23.7005 1.79063C23.3187 1.16762 22.8414 0.715425 22.2686 0.434061C21.6958 0.152699 21.0577 0.0120163 20.3543 0.0120163H2.50784C2.0657 0.0120163 1.6939 0.162746 1.39244 0.464207C1.09098 0.765669 0.940249 1.12742 0.940249 1.54947V6.79488L8.05472 4.11188L15.9831 7.24707H16.0133L15.9831 7.27722L16.0133 13.0954H21.319C21.319 12.1307 21.6606 11.3067 22.344 10.6234C23.0273 9.94012 23.8513 9.59846 24.8159 9.59846C25.7806 9.59846 26.6046 9.94012 27.2879 10.6234C27.9712 11.3067 28.3129 12.1307 28.3129 13.0954H30.0613C30.2623 13.0954 30.4281 13.0301 30.5588 12.8995C30.6894 12.7688 30.7547 12.6131 30.7547 12.4322V10.9249C30.7547 10.744 30.6894 10.5883 30.5588 10.4576C30.4281 10.327 30.2623 10.2617 30.0613 10.2617ZM18.2139 5.95079V1.45903H20.3543C20.8166 1.45903 21.2185 1.53942 21.5602 1.7002C21.9018 1.86098 22.2033 2.14234 22.4645 2.54428L24.4843 5.95079H18.2139ZM0.608643 16.5622L6.96946 19.7275V12.402L0.608643 9.41759V16.5622ZM8.08487 5.31772L0.879957 8.09116L7.81355 11.2565L14.717 8.06101L8.08487 5.31772ZM8.41647 19.7275L14.7773 16.5622V9.41759L8.41647 12.402V19.7275Z" fill="#63788F"/>
</svg>
